<?xml version="1.0" standalone="no"?><!DOCTYPE svg PUBLIC "-//W3C//DTD SVG 1.1//EN" "http://www.w3.org/Graphics/SVG/1.1/DTD/svg11.dtd"><svg t="1519365201626" class="icon" style="" viewBox="0 0 1024 1024" version="1.1" xmlns="http://www.w3.org/2000/svg" p-id="3172" xmlns:xlink="http://www.w3.org/1999/xlink" width="200" height="200"><defs><style type="text/css"></style></defs><path d="M967.111111 56.888889H56.888889a56.888889 56.888889 0 0 0-56.888889 56.888889v796.444444a56.888889 56.888889 0 0 0 56.888889 56.888889h910.222222a56.888889 56.888889 0 0 0 56.888889-56.888889V113.777778a56.888889 56.888889 0 0 0-56.888889-56.888889z m-56.888889 768a28.444444 28.444444 0 0 1-28.444444 28.444444H421.091556l318.691555-318.691555L910.222222 705.080889V824.888889z m0-278.414222l-123.448889-123.448889a56.263111 56.263111 0 0 0-47.331555-24.746667 55.921778 55.921778 0 0 0-46.478222 23.779556l-431.331556 431.331555H142.279111a28.444444 28.444444 0 0 1-28.444444-28.444444v-625.777778a28.444444 28.444444 0 0 1 28.444444-28.444444H881.777778a28.444444 28.444444 0 0 1 28.444444 28.444444v347.363556z" fill="" p-id="3173"></path><path d="M341.333333 284.444444a113.777778 113.777778 0 1 0-0.056889 227.498667A113.777778 113.777778 0 0 0 341.333333 284.444444z" fill="" p-id="3174"></path></svg>