<?xml version="1.0" standalone="no"?><!DOCTYPE svg PUBLIC "-//W3C//DTD SVG 1.1//EN" "http://www.w3.org/Graphics/SVG/1.1/DTD/svg11.dtd"><svg t="1519365410800" class="icon" style="" viewBox="0 0 1024 1024" version="1.1" xmlns="http://www.w3.org/2000/svg" p-id="4679" xmlns:xlink="http://www.w3.org/1999/xlink" width="200" height="200"><defs><style type="text/css"></style></defs><path d="M918.016 119.986 105.984 119.986c-23.1973 0-42.0016 18.8033-42.0016 42.0006l0 700.028c0 23.1963 18.8043 42.0006 42.0016 42.0006l812.032 0c23.1953 0 42.0016-18.8033 42.0016-42.0006L960.018 161.986C960.018 138.789 941.211 119.986 918.016 119.986ZM918.016 287.991l0 164.135-242.677 0L675.339 287.991l200.674 0L918.016 287.991ZM390.661 657.474 390.661 494.127l242.677 0 0 163.347L390.661 657.474ZM633.339 699.476l0 162.538L390.661 862.014 390.661 699.476 633.339 699.476ZM348.66 657.474l-242.677 0L105.983 494.127l242.677 0L348.66 657.474ZM633.339 287.991l0 164.135L390.661 452.126 390.661 287.991 633.339 287.991ZM675.339 494.127l242.677 0 0 163.347-242.677 0L675.339 494.127ZM399.996 161.986c23.1973 0 42.0016 18.8033 42.0016 42.0026 0 23.1963-18.8043 42.0006-42.0016 42.0006s-42.0026-18.8033-42.0026-42.0006C357.993 180.79 376.799 161.986 399.996 161.986ZM273.991 161.986c23.1953 0 42.0016 18.8033 42.0016 42.0026 0 23.1963-18.8053 42.0006-42.0016 42.0006-23.1984 0-42.0026-18.8033-42.0026-42.0006C231.989 180.79 250.793 161.986 273.991 161.986ZM147.986 161.986c23.1953 0 42.0016 18.8033 42.0016 42.0026 0 23.1963-18.8053 42.0006-42.0016 42.0006-23.1984 0-42.0026-18.8033-42.0026-42.0006C105.984 180.79 124.788 161.986 147.986 161.986ZM147.986 287.991l200.674 0 0 164.135-242.677 0L105.984 287.991 147.986 287.991ZM105.984 699.476l242.677 0 0 162.538-242.677 0L105.984 699.476ZM675.339 862.014 675.339 699.476l242.677 0 0 162.538L675.339 862.014Z" p-id="4680"></path></svg>