<?xml version="1.0" standalone="no"?><!DOCTYPE svg PUBLIC "-//W3C//DTD SVG 1.1//EN" "http://www.w3.org/Graphics/SVG/1.1/DTD/svg11.dtd"><svg t="1519365074733" class="icon" style="" viewBox="0 0 1024 1024" version="1.1" xmlns="http://www.w3.org/2000/svg" p-id="2116" xmlns:xlink="http://www.w3.org/1999/xlink" width="200" height="200"><defs><style type="text/css"></style></defs><path d="M977.77152 960.8192 75.55584 960.8192c62.94528-31.81056 178.88256-93.85984 200.58112-129.69984L661.2992 195.0464c14.6176-24.15616 18.9696-52.56192 12.23168-79.99488s-23.77216-50.59072-47.90784-65.20832l-57.04192-34.54976C552.0384 5.28896 533.14048 0 513.87392 0c-37.34528 0-71.18336 19.05152-86.72256 44.70784L41.98912 680.80128c-27.392 45.24032-26.81344 197.632-25.47712 261.32992 0.21504 10.34752 5.7088 19.85024 14.55104 25.21088 0.59904 0.3584 1.26976 0.50176 1.88928 0.80896-6.49216 5.55008-10.68544 13.68064-10.68544 22.89152 0 16.68096 13.52704 30.19776 30.20288 30.19776l925.29664 0c16.68096 0 30.208-13.52192 30.208-30.19776C1007.97952 974.35136 994.45248 960.8192 977.77152 960.8192zM89.8816 718.34112 475.03872 82.26304c8.28928-13.68064 22.80448-21.84704 38.8352-21.84704 8.22272 0 16.31744 2.27328 23.40352 6.56384l57.05216 34.54976c10.3424 6.26688 17.62816 16.18944 20.52096 27.94496s1.02912 23.936-5.23776 34.2784L224.54784 799.68256c-10.14272 14.82752-78.11584 55.7312-148.03456 92.61056C76.78976 813.24032 81.50528 734.08 89.8816 718.34112z" p-id="2117"></path></svg>